<mxfile host="app.diagrams.net" modified="2024-05-24T08:28:34.893Z" agent="Mozilla/5.0 (Macintosh; Intel Mac OS X 10_15_7) AppleWebKit/605.1.15 (KHTML, like Gecko) Version/17.1.2 Safari/605.1.15" version="24.4.7" etag="N2Dxjxae1I2voWM-_GkQ" type="github">
  <diagram name="第 1 页" id="dAJTa1fqZl_eKf8koDw7">
    <mxGraphModel>
      <root>
        <mxCell id="0" />
        <mxCell id="1" parent="0" />
      </root>
    </mxGraphModel>
  </diagram>
</mxfile>
